<?xml version="1.0" encoding="UTF-8" standalone="no"?>
<!DOCTYPE svg PUBLIC "-//W3C//DTD SVG 1.1//EN" "http://www.w3.org/Graphics/SVG/1.1/DTD/svg11.dtd">
<svg width="100%" height="100%" viewBox="0 0 700 700" version="1.1" xmlns="http://www.w3.org/2000/svg" xmlns:xlink="http://www.w3.org/1999/xlink" xml:space="preserve" xmlns:serif="http://www.serif.com/" style="fill-rule:evenodd;clip-rule:evenodd;stroke-linejoin:round;stroke-miterlimit:2;">
    <g transform="matrix(1,0,0,1,0.0060465,69.998)">
        <path d="M588.46,93.332L588.46,51.801L559.995,51.801L559.995,18.668L401.795,18.668L401.795,51.801L368.662,51.801L368.662,93.332L331.326,93.332L331.326,51.801L293.994,51.801L293.994,18.668L139.994,18.668L139.994,51.801L107.326,51.801L107.326,93.332L69.994,93.332L69.994,242.672L107.326,242.672L107.326,317.34L139.994,317.336L139.994,358.871L177.326,358.871L177.326,396.672L219.326,396.672L219.326,429.336L256.662,429.336L256.662,466.672L293.994,466.672L293.994,504.004L331.326,504.004L331.326,541.336L368.658,541.336L368.662,504.004L401.795,504.004L401.795,466.672L443.326,466.672L443.326,429.336L484.861,429.336L484.861,396.672L517.994,396.672L517.994,359.34L559.994,359.336L559.994,317.336L588.928,317.336L588.928,242.672L629.994,242.672L629.994,93.332L588.46,93.332ZM256.66,93.332L181.992,93.332L181.992,238.462L139.992,238.462L139.992,93.332L181.992,93.332L181.992,51.801L256.66,51.801L256.66,93.332Z" style="fill-rule:nonzero;"/>
    </g>
</svg>
