<?xml version="1.0" encoding="UTF-8" standalone="no"?>
<!DOCTYPE svg PUBLIC "-//W3C//DTD SVG 1.1//EN" "http://www.w3.org/Graphics/SVG/1.1/DTD/svg11.dtd">
<svg width="100%" height="100%" viewBox="0 0 3940 610" version="1.1" xmlns="http://www.w3.org/2000/svg" xmlns:xlink="http://www.w3.org/1999/xlink" xml:space="preserve" xmlns:serif="http://www.serif.com/" style="fill-rule:evenodd;clip-rule:evenodd;stroke-linejoin:round;stroke-miterlimit:2;">
    <path d="M594.79,308.2C594.79,471.96 462.94,604.72 300.29,604.72C137.64,604.72 5.8,472 5.8,308.2C5.8,144.4 137.65,11.69 300.29,11.69C462.93,11.69 594.79,144.44 594.79,308.2M917.86,308.2C917.86,462.36 851.93,587.32 770.61,587.32C689.29,587.32 623.36,462.32 623.36,308.2C623.36,154.08 689.29,29.08 770.61,29.08C851.93,29.08 917.86,154.08 917.86,308.2M1050,308.2C1050,446.32 1026.81,558.28 998.21,558.28C969.61,558.28 946.42,446.28 946.42,308.2C946.42,170.12 969.61,58.12 998.22,58.12C1026.83,58.12 1050,170.09 1050,308.2M1862.77,37.4L1863.59,37.22L1863.59,30.87L1696.11,30.87L1540.6,396.37L1385.09,30.87L1204.61,30.87L1204.61,37.22L1205.42,37.4C1235.99,44.3 1251.51,54.59 1251.51,91.7L1251.51,526.15C1251.51,563.26 1235.93,573.55 1205.36,580.45L1204.55,580.63L1204.55,587L1327,587L1327,580.65L1326.19,580.47C1295.62,573.57 1280.1,563.28 1280.1,526.17L1280.1,116.9L1479.87,587L1491.2,587L1696.79,103.79L1696.79,536.9C1694.17,566.21 1678.79,575.26 1651.11,581.51L1650.29,581.7L1650.29,588L1863.59,588L1863.59,581.7L1862.77,581.51C1835.06,575.26 1819.31,566.21 1816.69,536.9L1816.55,91.7L1816.69,91.7C1816.69,54.59 1832.21,44.3 1862.77,37.4M1960.2,325.2C1963.69,247.14 1991.72,190.8 2038.76,189.83C2053.27,190.07 2065.44,194.83 2074.9,203.99C2095,223.5 2104.45,264.27 2102.99,325.2L1960.2,325.2ZM1958.09,347.2L2208.09,347.2L2208.09,346.15C2207.38,286.46 2190.09,240.03 2156.75,208.15C2127.93,180.6 2085.26,165.44 2040.44,165.44L2039.44,165.44C2016.18,165.44 1987.65,171.08 1967.35,181.3C1944.24,192 1923.86,208 1906.9,229C1879.6,262.83 1863.06,308.55 1859.04,359.93C1858.91,361.47 1858.8,363.01 1858.69,364.55C1858.58,366.09 1858.51,367.47 1858.44,368.94C1858.08,376.164 1857.96,383.398 1858.08,390.63C1860.79,507 1923.65,600 2035.3,600C2133.3,600 2190.37,528.36 2204.6,432.2L2197.41,429.67C2172.41,481.35 2127.51,512.67 2076.41,508.85C2006.65,503.63 1953.21,432.9 1958.06,347.22M2490.75,504.9C2482.55,524.35 2465.44,535.05 2442.51,535.05C2419.58,535.05 2398.62,519.31 2383.73,490.71C2367.73,460.01 2359.31,416.61 2359.31,365.2C2359.31,258.2 2392.59,188.99 2444.1,188.99C2465.67,188.99 2482.65,199.69 2490.75,218.36L2490.75,504.9ZM2656.59,581.18C2626.02,573.95 2610.5,563.18 2610.5,524.18L2610.5,5.28L2424.77,60L2424.77,66.7L2425.91,66.61C2451.53,64.54 2468.91,68.08 2479,77.4C2486.9,84.7 2490.75,95.9 2490.75,111.66L2490.75,182.8C2472.44,171.11 2450.66,165.42 2424.23,165.42C2370.63,165.42 2321.64,187.99 2286.31,228.98C2249.48,271.7 2230.01,330.08 2230.01,397.79C2230,518.72 2289.53,600 2378.13,600C2429.96,600 2471.66,571.6 2490.75,523.7L2490.75,588L2657.4,588L2657.4,581.34L2656.59,581.18ZM2815.88,75.85C2815.88,38.09 2787.41,9.61 2749.64,9.61C2712.05,9.61 2682.64,38.71 2682.64,75.85C2682.64,112.99 2712.08,142.09 2749.64,142.09C2787.41,142.09 2815.88,113.61 2815.88,75.85M2859.72,581.18C2829.15,573.95 2813.63,563.18 2813.63,524.18L2813.5,524.18L2813.5,166.65L2646.84,214.5L2646.84,221L2647.84,221.09C2683.9,224.3 2693.77,236.72 2693.77,278.86L2693.77,588L2860.57,588L2860.57,581.34L2859.72,581.18ZM3286.77,581.18C3256.2,573.95 3240.68,563.18 3240.68,524.18L3240.68,166.65L3082,212.92L3082,219.44L3082.94,219.54C3112.42,222.64 3120.94,235.77 3120.94,278.1L3120.94,504.1C3111.11,523.55 3092.67,535.1 3070.33,535.88C3034.1,535.88 3014.15,511.41 3014.15,466.98L3014.15,166.66L2847.49,214.51L2847.49,221L2848.49,221.09C2884.55,224.29 2894.43,236.71 2894.43,278.86L2894.43,470.13C2894.35,483.482 2895.51,496.814 2897.9,509.95L2900.9,523C2915.01,573.56 2951.98,600 3009.9,600C3058.96,600 3101.96,569.63 3120.9,522.11L3120.9,588.11L3287.56,588.11L3287.56,581.45L3286.77,581.18ZM3934.2,588L3934.2,581.33L3933.39,581.14C3900.22,573.49 3887.3,559.07 3887.3,529.71L3887.3,286.51C3887.3,210.68 3844.71,165.42 3773.37,165.42C3721.37,165.42 3677.52,195.47 3660.64,242.28C3647.23,192.68 3608.64,165.42 3551.58,165.42C3501.46,165.42 3462.18,191.87 3445.33,236.55L3445.33,166.68L3278.67,212.57L3278.67,219.11L3279.67,219.2C3315.3,222.36 3325.6,235.14 3325.6,276.2L3325.6,588L3481.1,588L3481.1,581.34L3480.28,581.14C3453.82,574.92 3445.28,563.58 3445.28,534.48L3445.28,255.72C3452.28,239.37 3466.39,220 3494.28,220C3528.92,220 3546.48,244 3546.48,291.28L3546.48,588L3702.02,588L3702.02,581.34L3701.2,581.14C3674.74,574.92 3666.2,563.58 3666.2,534.48L3666.2,286.48C3666.27,277.207 3665.53,267.946 3664,258.8C3671.42,241.03 3686.34,220 3715.37,220C3750.5,220 3767.57,243.31 3767.57,291.28L3767.57,588L3934.2,588Z" style="fill-rule:nonzero;"/>
</svg>
